<mxfile host="app.diagrams.net" modified="2022-11-14T14:24:34.268Z" agent="5.0 (Windows NT 10.0; Win64; x64) AppleWebKit/537.36 (KHTML, like Gecko) Chrome/103.0.0.0 Safari/537.36" etag="F-TxCjjRVfgkZGkVjcXE" version="20.5.1" type="github">
  <diagram id="yNctnVORr8iHeDgj5QDI" name="第 1 页">
    <mxGraphModel dx="2346" dy="1266" grid="1" gridSize="10" guides="1" tooltips="1" connect="1" arrows="1" fold="1" page="1" pageScale="1" pageWidth="827" pageHeight="1169" math="0" shadow="0">
      <root>
        <mxCell id="0" />
        <mxCell id="1" parent="0" />
        <mxCell id="jzBIFa5iqPdJyjCQvUZY-1" value="媒体房间辅流" style="rounded=1;whiteSpace=wrap;html=1;" vertex="1" parent="1">
          <mxGeometry x="319" y="370" width="120" height="60" as="geometry" />
        </mxCell>
        <mxCell id="jzBIFa5iqPdJyjCQvUZY-2" value="APP" style="rounded=0;whiteSpace=wrap;html=1;" vertex="1" parent="1">
          <mxGeometry x="39" y="500" width="120" height="60" as="geometry" />
        </mxCell>
        <mxCell id="jzBIFa5iqPdJyjCQvUZY-3" value="云录制" style="rounded=1;whiteSpace=wrap;html=1;" vertex="1" parent="1">
          <mxGeometry x="430" y="570" width="120" height="60" as="geometry" />
        </mxCell>
        <mxCell id="jzBIFa5iqPdJyjCQvUZY-4" value="会控" style="rounded=1;whiteSpace=wrap;html=1;" vertex="1" parent="1">
          <mxGeometry x="230" y="660" width="120" height="60" as="geometry" />
        </mxCell>
        <mxCell id="jzBIFa5iqPdJyjCQvUZY-5" value="APP2" style="rounded=0;whiteSpace=wrap;html=1;" vertex="1" parent="1">
          <mxGeometry x="620" y="460" width="120" height="60" as="geometry" />
        </mxCell>
        <mxCell id="jzBIFa5iqPdJyjCQvUZY-6" value="" style="endArrow=classic;html=1;rounded=0;entryX=0;entryY=0.75;entryDx=0;entryDy=0;" edge="1" parent="1" target="jzBIFa5iqPdJyjCQvUZY-1">
          <mxGeometry width="50" height="50" relative="1" as="geometry">
            <mxPoint x="159" y="500" as="sourcePoint" />
            <mxPoint x="209" y="450" as="targetPoint" />
            <Array as="points" />
          </mxGeometry>
        </mxCell>
        <mxCell id="jzBIFa5iqPdJyjCQvUZY-7" value="" style="endArrow=classic;html=1;rounded=0;exitX=0.992;exitY=0.872;exitDx=0;exitDy=0;exitPerimeter=0;entryX=0;entryY=0;entryDx=0;entryDy=0;" edge="1" parent="1" source="jzBIFa5iqPdJyjCQvUZY-1" target="jzBIFa5iqPdJyjCQvUZY-5">
          <mxGeometry width="50" height="50" relative="1" as="geometry">
            <mxPoint x="440" y="770" as="sourcePoint" />
            <mxPoint x="490" y="720" as="targetPoint" />
          </mxGeometry>
        </mxCell>
        <mxCell id="jzBIFa5iqPdJyjCQvUZY-8" value="推流" style="rounded=0;whiteSpace=wrap;html=1;fillColor=none;strokeColor=none;" vertex="1" parent="1">
          <mxGeometry x="230" y="460" width="80" height="30" as="geometry" />
        </mxCell>
        <mxCell id="jzBIFa5iqPdJyjCQvUZY-9" value="拉流" style="rounded=0;whiteSpace=wrap;html=1;fillColor=none;strokeColor=none;" vertex="1" parent="1">
          <mxGeometry x="470" y="440" width="80" height="30" as="geometry" />
        </mxCell>
        <mxCell id="jzBIFa5iqPdJyjCQvUZY-10" value="" style="endArrow=classic;html=1;rounded=0;exitX=0.9;exitY=1.002;exitDx=0;exitDy=0;exitPerimeter=0;" edge="1" parent="1" source="jzBIFa5iqPdJyjCQvUZY-1" target="jzBIFa5iqPdJyjCQvUZY-3">
          <mxGeometry width="50" height="50" relative="1" as="geometry">
            <mxPoint x="550" y="770" as="sourcePoint" />
            <mxPoint x="600" y="720" as="targetPoint" />
          </mxGeometry>
        </mxCell>
        <mxCell id="jzBIFa5iqPdJyjCQvUZY-11" value="拉流" style="rounded=0;whiteSpace=wrap;html=1;fillColor=none;strokeColor=none;" vertex="1" parent="1">
          <mxGeometry x="390" y="490" width="80" height="30" as="geometry" />
        </mxCell>
        <mxCell id="jzBIFa5iqPdJyjCQvUZY-12" value="" style="endArrow=classic;html=1;rounded=0;exitX=1;exitY=1;exitDx=0;exitDy=0;entryX=0;entryY=0;entryDx=0;entryDy=0;" edge="1" parent="1" source="jzBIFa5iqPdJyjCQvUZY-2" target="jzBIFa5iqPdJyjCQvUZY-4">
          <mxGeometry width="50" height="50" relative="1" as="geometry">
            <mxPoint x="550" y="770" as="sourcePoint" />
            <mxPoint x="600" y="720" as="targetPoint" />
          </mxGeometry>
        </mxCell>
        <mxCell id="jzBIFa5iqPdJyjCQvUZY-13" value="user_status" style="rounded=0;whiteSpace=wrap;html=1;fillColor=none;strokeColor=none;" vertex="1" parent="1">
          <mxGeometry x="190" y="585" width="80" height="30" as="geometry" />
        </mxCell>
        <mxCell id="jzBIFa5iqPdJyjCQvUZY-14" value="" style="endArrow=classic;html=1;rounded=0;exitX=1;exitY=0.5;exitDx=0;exitDy=0;entryX=0;entryY=0.5;entryDx=0;entryDy=0;" edge="1" parent="1" source="jzBIFa5iqPdJyjCQvUZY-4" target="jzBIFa5iqPdJyjCQvUZY-3">
          <mxGeometry width="50" height="50" relative="1" as="geometry">
            <mxPoint x="550" y="770" as="sourcePoint" />
            <mxPoint x="600" y="720" as="targetPoint" />
          </mxGeometry>
        </mxCell>
        <mxCell id="jzBIFa5iqPdJyjCQvUZY-15" value="Kafka通知" style="rounded=0;whiteSpace=wrap;html=1;fillColor=none;strokeColor=none;" vertex="1" parent="1">
          <mxGeometry x="374" y="650" width="80" height="30" as="geometry" />
        </mxCell>
        <mxCell id="jzBIFa5iqPdJyjCQvUZY-16" value="屏幕共享开始" style="rounded=0;whiteSpace=wrap;html=1;fillColor=none;strokeColor=none;" vertex="1" parent="1">
          <mxGeometry x="159" y="515" width="80" height="30" as="geometry" />
        </mxCell>
        <mxCell id="jzBIFa5iqPdJyjCQvUZY-17" value="1" style="ellipse;whiteSpace=wrap;html=1;aspect=fixed;fillColor=none;" vertex="1" parent="1">
          <mxGeometry x="159" y="460" width="20" height="20" as="geometry" />
        </mxCell>
        <mxCell id="jzBIFa5iqPdJyjCQvUZY-19" value="2" style="ellipse;whiteSpace=wrap;html=1;aspect=fixed;fillColor=none;" vertex="1" parent="1">
          <mxGeometry x="159" y="610" width="20" height="20" as="geometry" />
        </mxCell>
        <mxCell id="jzBIFa5iqPdJyjCQvUZY-20" value="3" style="ellipse;whiteSpace=wrap;html=1;aspect=fixed;fillColor=none;" vertex="1" parent="1">
          <mxGeometry x="404" y="640" width="20" height="20" as="geometry" />
        </mxCell>
        <mxCell id="jzBIFa5iqPdJyjCQvUZY-23" value="" style="curved=1;endArrow=classic;html=1;rounded=0;exitX=1;exitY=0.75;exitDx=0;exitDy=0;entryX=0.5;entryY=1;entryDx=0;entryDy=0;" edge="1" parent="1" source="jzBIFa5iqPdJyjCQvUZY-4" target="jzBIFa5iqPdJyjCQvUZY-5">
          <mxGeometry width="50" height="50" relative="1" as="geometry">
            <mxPoint x="550" y="770" as="sourcePoint" />
            <mxPoint x="600" y="720" as="targetPoint" />
            <Array as="points">
              <mxPoint x="520" y="700" />
            </Array>
          </mxGeometry>
        </mxCell>
        <mxCell id="jzBIFa5iqPdJyjCQvUZY-24" value="S2C" style="rounded=0;whiteSpace=wrap;html=1;fillColor=none;strokeColor=none;" vertex="1" parent="1">
          <mxGeometry x="540" y="635" width="80" height="30" as="geometry" />
        </mxCell>
        <mxCell id="jzBIFa5iqPdJyjCQvUZY-26" value="4" style="ellipse;whiteSpace=wrap;html=1;aspect=fixed;fillColor=none;" vertex="1" parent="1">
          <mxGeometry x="540" y="645" width="20" height="20" as="geometry" />
        </mxCell>
        <mxCell id="jzBIFa5iqPdJyjCQvUZY-27" value="5" style="ellipse;whiteSpace=wrap;html=1;aspect=fixed;fillColor=none;" vertex="1" parent="1">
          <mxGeometry x="520" y="420" width="20" height="20" as="geometry" />
        </mxCell>
        <mxCell id="jzBIFa5iqPdJyjCQvUZY-28" value="5" style="ellipse;whiteSpace=wrap;html=1;aspect=fixed;fillColor=none;" vertex="1" parent="1">
          <mxGeometry x="390" y="495" width="20" height="20" as="geometry" />
        </mxCell>
        <mxCell id="jzBIFa5iqPdJyjCQvUZY-53" value="媒体房间辅流" style="rounded=1;whiteSpace=wrap;html=1;" vertex="1" parent="1">
          <mxGeometry x="329.5" y="850" width="120" height="60" as="geometry" />
        </mxCell>
        <mxCell id="jzBIFa5iqPdJyjCQvUZY-54" value="APP" style="rounded=0;whiteSpace=wrap;html=1;" vertex="1" parent="1">
          <mxGeometry x="49.5" y="980" width="120" height="60" as="geometry" />
        </mxCell>
        <mxCell id="jzBIFa5iqPdJyjCQvUZY-55" value="云录制" style="rounded=1;whiteSpace=wrap;html=1;" vertex="1" parent="1">
          <mxGeometry x="440.5" y="1050" width="120" height="60" as="geometry" />
        </mxCell>
        <mxCell id="jzBIFa5iqPdJyjCQvUZY-56" value="会控" style="rounded=1;whiteSpace=wrap;html=1;" vertex="1" parent="1">
          <mxGeometry x="240.5" y="1140" width="120" height="60" as="geometry" />
        </mxCell>
        <mxCell id="jzBIFa5iqPdJyjCQvUZY-57" value="APP2" style="rounded=0;whiteSpace=wrap;html=1;" vertex="1" parent="1">
          <mxGeometry x="630.5" y="940" width="120" height="60" as="geometry" />
        </mxCell>
        <mxCell id="jzBIFa5iqPdJyjCQvUZY-58" value="" style="endArrow=classic;html=1;rounded=0;entryX=0;entryY=0.75;entryDx=0;entryDy=0;" edge="1" parent="1" target="jzBIFa5iqPdJyjCQvUZY-53">
          <mxGeometry width="50" height="50" relative="1" as="geometry">
            <mxPoint x="169.5" y="980" as="sourcePoint" />
            <mxPoint x="219.5" y="930" as="targetPoint" />
            <Array as="points" />
          </mxGeometry>
        </mxCell>
        <mxCell id="jzBIFa5iqPdJyjCQvUZY-59" value="" style="endArrow=classic;html=1;rounded=0;exitX=0.992;exitY=0.872;exitDx=0;exitDy=0;exitPerimeter=0;entryX=0;entryY=0;entryDx=0;entryDy=0;" edge="1" parent="1" source="jzBIFa5iqPdJyjCQvUZY-53" target="jzBIFa5iqPdJyjCQvUZY-57">
          <mxGeometry width="50" height="50" relative="1" as="geometry">
            <mxPoint x="450.5" y="1250" as="sourcePoint" />
            <mxPoint x="500.5" y="1200" as="targetPoint" />
          </mxGeometry>
        </mxCell>
        <mxCell id="jzBIFa5iqPdJyjCQvUZY-61" value="关闭拉流" style="rounded=0;whiteSpace=wrap;html=1;fillColor=none;strokeColor=none;" vertex="1" parent="1">
          <mxGeometry x="480.5" y="920" width="80" height="30" as="geometry" />
        </mxCell>
        <mxCell id="jzBIFa5iqPdJyjCQvUZY-62" value="" style="endArrow=classic;html=1;rounded=0;exitX=0.9;exitY=1.002;exitDx=0;exitDy=0;exitPerimeter=0;" edge="1" parent="1" source="jzBIFa5iqPdJyjCQvUZY-53" target="jzBIFa5iqPdJyjCQvUZY-55">
          <mxGeometry width="50" height="50" relative="1" as="geometry">
            <mxPoint x="560.5" y="1250" as="sourcePoint" />
            <mxPoint x="610.5" y="1200" as="targetPoint" />
          </mxGeometry>
        </mxCell>
        <mxCell id="jzBIFa5iqPdJyjCQvUZY-63" value="停止拉流" style="rounded=0;whiteSpace=wrap;html=1;fillColor=none;strokeColor=none;" vertex="1" parent="1">
          <mxGeometry x="404" y="975" width="80" height="30" as="geometry" />
        </mxCell>
        <mxCell id="jzBIFa5iqPdJyjCQvUZY-64" value="" style="endArrow=classic;html=1;rounded=0;exitX=1;exitY=1;exitDx=0;exitDy=0;entryX=0;entryY=0;entryDx=0;entryDy=0;" edge="1" parent="1" source="jzBIFa5iqPdJyjCQvUZY-54" target="jzBIFa5iqPdJyjCQvUZY-56">
          <mxGeometry width="50" height="50" relative="1" as="geometry">
            <mxPoint x="560.5" y="1250" as="sourcePoint" />
            <mxPoint x="610.5" y="1200" as="targetPoint" />
          </mxGeometry>
        </mxCell>
        <mxCell id="jzBIFa5iqPdJyjCQvUZY-65" value="user_status" style="rounded=0;whiteSpace=wrap;html=1;fillColor=none;strokeColor=none;" vertex="1" parent="1">
          <mxGeometry x="200.5" y="1065" width="80" height="30" as="geometry" />
        </mxCell>
        <mxCell id="jzBIFa5iqPdJyjCQvUZY-66" value="" style="endArrow=classic;html=1;rounded=0;exitX=1;exitY=0.5;exitDx=0;exitDy=0;entryX=0;entryY=0.5;entryDx=0;entryDy=0;" edge="1" parent="1" source="jzBIFa5iqPdJyjCQvUZY-56" target="jzBIFa5iqPdJyjCQvUZY-55">
          <mxGeometry width="50" height="50" relative="1" as="geometry">
            <mxPoint x="560.5" y="1250" as="sourcePoint" />
            <mxPoint x="610.5" y="1200" as="targetPoint" />
          </mxGeometry>
        </mxCell>
        <mxCell id="jzBIFa5iqPdJyjCQvUZY-67" value="Kafka通知" style="rounded=0;whiteSpace=wrap;html=1;fillColor=none;strokeColor=none;" vertex="1" parent="1">
          <mxGeometry x="384.5" y="1130" width="80" height="30" as="geometry" />
        </mxCell>
        <mxCell id="jzBIFa5iqPdJyjCQvUZY-68" value="屏幕共享结束" style="rounded=0;whiteSpace=wrap;html=1;fillColor=none;strokeColor=none;" vertex="1" parent="1">
          <mxGeometry x="169.5" y="995" width="80" height="30" as="geometry" />
        </mxCell>
        <mxCell id="jzBIFa5iqPdJyjCQvUZY-69" value="1" style="ellipse;whiteSpace=wrap;html=1;aspect=fixed;fillColor=none;" vertex="1" parent="1">
          <mxGeometry x="169.5" y="940" width="20" height="20" as="geometry" />
        </mxCell>
        <mxCell id="jzBIFa5iqPdJyjCQvUZY-70" value="2" style="ellipse;whiteSpace=wrap;html=1;aspect=fixed;fillColor=none;" vertex="1" parent="1">
          <mxGeometry x="169.5" y="1090" width="20" height="20" as="geometry" />
        </mxCell>
        <mxCell id="jzBIFa5iqPdJyjCQvUZY-71" value="3" style="ellipse;whiteSpace=wrap;html=1;aspect=fixed;fillColor=none;" vertex="1" parent="1">
          <mxGeometry x="414.5" y="1120" width="20" height="20" as="geometry" />
        </mxCell>
        <mxCell id="jzBIFa5iqPdJyjCQvUZY-72" value="" style="curved=1;endArrow=classic;html=1;rounded=0;exitX=1;exitY=0.75;exitDx=0;exitDy=0;entryX=0.5;entryY=1;entryDx=0;entryDy=0;" edge="1" parent="1" source="jzBIFa5iqPdJyjCQvUZY-56" target="jzBIFa5iqPdJyjCQvUZY-57">
          <mxGeometry width="50" height="50" relative="1" as="geometry">
            <mxPoint x="560.5" y="1250" as="sourcePoint" />
            <mxPoint x="610.5" y="1200" as="targetPoint" />
            <Array as="points">
              <mxPoint x="530.5" y="1180" />
            </Array>
          </mxGeometry>
        </mxCell>
        <mxCell id="jzBIFa5iqPdJyjCQvUZY-73" value="S2C" style="rounded=0;whiteSpace=wrap;html=1;fillColor=none;strokeColor=none;" vertex="1" parent="1">
          <mxGeometry x="550.5" y="1115" width="80" height="30" as="geometry" />
        </mxCell>
        <mxCell id="jzBIFa5iqPdJyjCQvUZY-74" value="4" style="ellipse;whiteSpace=wrap;html=1;aspect=fixed;fillColor=none;" vertex="1" parent="1">
          <mxGeometry x="550.5" y="1125" width="20" height="20" as="geometry" />
        </mxCell>
        <mxCell id="jzBIFa5iqPdJyjCQvUZY-75" value="5" style="ellipse;whiteSpace=wrap;html=1;aspect=fixed;fillColor=none;" vertex="1" parent="1">
          <mxGeometry x="530.5" y="900" width="20" height="20" as="geometry" />
        </mxCell>
        <mxCell id="jzBIFa5iqPdJyjCQvUZY-76" value="5" style="ellipse;whiteSpace=wrap;html=1;aspect=fixed;fillColor=none;" vertex="1" parent="1">
          <mxGeometry x="400.5" y="975" width="20" height="20" as="geometry" />
        </mxCell>
        <mxCell id="jzBIFa5iqPdJyjCQvUZY-77" value="停止推流" style="rounded=0;whiteSpace=wrap;html=1;fillColor=none;strokeColor=none;" vertex="1" parent="1">
          <mxGeometry x="210" y="945" width="80" height="30" as="geometry" />
        </mxCell>
        <mxCell id="jzBIFa5iqPdJyjCQvUZY-78" value="背景：现在云录制没有录制WEB共享，需要支持录制WEB共享&lt;br&gt;媒体房间只支持一路辅流，屏幕共享和web共享共用一个辅流；&lt;br&gt;&lt;br&gt;备注：&lt;br&gt;1 之前没有录制web共享的原因&lt;br&gt;&amp;nbsp; &amp;nbsp;共享web未推流到媒体房间的辅流&lt;br&gt;&lt;br&gt;2 加上web共享，存在的问题&lt;br&gt;&amp;nbsp; &amp;nbsp;正常的打开关闭无问题；&lt;br&gt;&amp;nbsp; &amp;nbsp;屏幕共享和web共享切换的时候有问题&amp;nbsp; &amp;nbsp;&lt;br&gt;&lt;br&gt;3 屏幕共享和web共享互相切换问题&lt;br&gt;3.1 正常的开启--&amp;gt;关闭--&amp;gt;开启，无问题&lt;br&gt;&amp;nbsp; &amp;nbsp; &amp;nbsp; 有停流&lt;br&gt;3.2 直接切换（新的共享 --&amp;gt; 切换）&lt;br&gt;&amp;nbsp; &amp;nbsp; &amp;nbsp; &amp;nbsp;没有停流，如果先停流再开流，则会有黑屏，这段时间录制缺失；&lt;br&gt;&amp;nbsp; &amp;nbsp; &amp;nbsp; &amp;nbsp;" style="rounded=0;whiteSpace=wrap;html=1;fillColor=none;align=left;" vertex="1" parent="1">
          <mxGeometry x="10" y="1230" width="679.5" height="440" as="geometry" />
        </mxCell>
        <mxCell id="jzBIFa5iqPdJyjCQvUZY-79" value="存储" style="rounded=1;whiteSpace=wrap;html=1;" vertex="1" parent="1">
          <mxGeometry x="580" y="300" width="120" height="60" as="geometry" />
        </mxCell>
        <mxCell id="jzBIFa5iqPdJyjCQvUZY-80" value="" style="endArrow=classic;html=1;rounded=0;entryX=0.25;entryY=1;entryDx=0;entryDy=0;" edge="1" parent="1" target="jzBIFa5iqPdJyjCQvUZY-79">
          <mxGeometry width="50" height="50" relative="1" as="geometry">
            <mxPoint x="540" y="570" as="sourcePoint" />
            <mxPoint x="590" y="520" as="targetPoint" />
          </mxGeometry>
        </mxCell>
        <mxCell id="jzBIFa5iqPdJyjCQvUZY-81" value="6" style="ellipse;whiteSpace=wrap;html=1;aspect=fixed;fillColor=none;" vertex="1" parent="1">
          <mxGeometry x="520" y="520" width="20" height="20" as="geometry" />
        </mxCell>
        <mxCell id="jzBIFa5iqPdJyjCQvUZY-82" value="录制文件上传" style="rounded=0;whiteSpace=wrap;html=1;fillColor=none;strokeColor=none;" vertex="1" parent="1">
          <mxGeometry x="530.5" y="530" width="80" height="30" as="geometry" />
        </mxCell>
        <mxCell id="jzBIFa5iqPdJyjCQvUZY-89" value="" style="curved=1;endArrow=classic;html=1;rounded=0;exitX=1;exitY=1;exitDx=0;exitDy=0;" edge="1" parent="1" source="jzBIFa5iqPdJyjCQvUZY-53" target="jzBIFa5iqPdJyjCQvUZY-55">
          <mxGeometry width="50" height="50" relative="1" as="geometry">
            <mxPoint x="590" y="1060" as="sourcePoint" />
            <mxPoint x="640" y="1010" as="targetPoint" />
            <Array as="points">
              <mxPoint x="500" y="980" />
              <mxPoint x="520" y="1010" />
            </Array>
          </mxGeometry>
        </mxCell>
        <mxCell id="jzBIFa5iqPdJyjCQvUZY-90" value="监控辅流" style="rounded=0;whiteSpace=wrap;html=1;fillColor=none;strokeColor=none;" vertex="1" parent="1">
          <mxGeometry x="500" y="975" width="80" height="30" as="geometry" />
        </mxCell>
      </root>
    </mxGraphModel>
  </diagram>
</mxfile>
